# xmcd
#
# Track frame offsets: 
#        150
#        14158
#        26618
#        35596
#        45482
#        57136
#        71363
#        82333
#        93064
#        104720
#        112335
#        125991
#        137908
#        149288
#        159367
#
# Disc length: 2334 seconds
#
# Revision: 0
# Processed by: cddbd v1.5.2PL0 Copyright (c) Steve Scherf et al.
# Submitted via: ExactAudioCopy v0.95b3
#
DISCID=de091c0f
DTITLE=Various Artist - Cowboys Songs
DYEAR=1900
DGENRE=Country
TTITLE0=Patsy Montana/I Wanna Be A Cowboy Sweetheart
TTITLE1=Tex Ritter/High Noon (Do Not Forsake Me)
TTITLE2=Dorisi Day and Frankie Laine/Sugarbush
TTITLE3=Les Paul and Mary Ford/In The Good Old Summertime
TTITLE4=Bob Willis and His Texas Playboys/New San Antonio Rose
TTITLE5=Patti Page/Mister And Mississippi
TTITLE6=Frankie Laine/Your Cheatin' Heart
TTITLE7=Rosemary Clooney/This Ole House
TTITLE8=Rusty Draper/Gambler's Guitar
TTITLE9=Fess Parker/Ballad Of Davy Crockett
TTITLE10=Mitch Miller/The Yellow Rose Of Texas
TTITLE11=Jim Reeves and His Circle O Ranch Boys/Mexican Joe
TTITLE12=Roy Rogers-Hi/Yo, Silver
TTITLE13=Marilyn Monroe/The River Of No Return
TTITLE14=Jimmie Rodgers/Blue Yodel
EXTD=
EXTT0=
EXTT1=
EXTT2=
EXTT3=
EXTT4=
EXTT5=
EXTT6=
EXTT7=
EXTT8=
EXTT9=
EXTT10=
EXTT11=
EXTT12=
EXTT13=
EXTT14=
PLAYORDER=
